<?xml version="1.0" encoding="UTF-8"?>
<svg id="Layer_1" data-name="Layer 1" xmlns="http://www.w3.org/2000/svg" viewBox="0 0 369.6 375.79">
  <defs>
    <style>
      .cls-1 {
        fill: #616af9;
      }

      .cls-1, .cls-2 {
        stroke-width: 0px;
      }

      .cls-2 {
        fill: #0ec9ac;
      }
    </style>
  </defs>
  <path class="cls-2" d="m262.6,373.3c-62-.01-66.41,2.52-130.77,2.49-66.98-.03-119.94-45.91-130.35-111.99C-9.32,195.21,40.18,126.73,109.12,117.53c24.76-3.31,50.2-1.82,75.32-2.13,23.82-.28,47.35,4.19,71.16,3.9,5.28-.06,8-2,11.01,2.16,4.19,5.79,6.94,12.52,11.28,20.21-25.56,0-49.49-5.45-73.29-5.37-28.35.1-56.63,4.67-84.94,6.1-44.97,2.26-86.82,43.6-91.99,89.09-6.41,56.53,28.95,105.28,84.73,116.3,7.3,1.45,14.9,1.86,22.35,1.86,58.9.02,116.4.04,173.41.04l-45.56,23.61Z"/>
  <path class="cls-2" d="m122.17,372.3c60.36-.01,56.43,3.52,119.08,3.49,65.21-.03,116.77-45.91,126.9-111.99,10.51-68.59-37.68-137.07-104.79-146.27-24.11-3.31-48.87-1.82-73.33-2.13-23.19-.28-46.26,5.19-69.44,4.9-5.14-.06-6-2-10.56,1.16-5.84,4.05-6.76,12.52-10.98,20.21,24.88,0,48.04-.06,71.21.02,27.6.1,55.28-.72,82.84.71,43.78,2.26,84.52,43.6,89.56,89.09,6.24,56.53-28.18,105.28-82.49,116.3-7.11,1.45-14.51,1.86-21.76,1.86-57.34.02-113.32.04-168.82.04l52.58,22.61Z"/>
  <path class="cls-1" d="m234.77,101.5h-32.35c-1.24-6.53-2.04-12.87-3.67-18.98-8.22-30.78-39.4-52.8-69.39-49.21-35.51,4.25-61.89,31.62-61.25,65.69.24,12.48-2.5,20.35-14.3,25.48-6.62,2.88-12.13,8.31-20.61,14.35,1.74-23.07.8-44.54,5.41-64.73C49.04,28.46,92.04-1.84,139.42.09c45.57,1.86,85.39,36.66,93.42,81.85,1.1,6.2,1.27,12.57,1.93,19.56Z"/>
  <path class="cls-1" d="m197.55,266.97c5.66,10.04,11.4,20.21,17.68,31.32h-65.47c6.13-10.82,11.99-21.17,17.79-31.4-19.96-18.86-22.96-38.94-8.39-53.74,12.57-12.77,33.47-12.92,46.27-.34,15.42,15.16,12.82,33.89-7.87,54.15Z"/>
</svg>